<?xml version="1.0" encoding="iso-8859-1"?>
<!-- Generator: Adobe Illustrator 19.0.0, SVG Export Plug-In . SVG Version: 6.00 Build 0)  -->
<svg version="1.1" id="Layer_1" xmlns="http://www.w3.org/2000/svg" xmlns:xlink="http://www.w3.org/1999/xlink" x="0px" y="0px"
	 viewBox="0 0 512 512" style="enable-background:new 0 0 512 512;" xml:space="preserve">
<g>
	<g>
		<g>
			<path d="M363.236,89.217c7.68,8.448,22.784,17.451,42.112,17.451c19.307,0,34.411-9.003,42.091-17.451
				c0.725-0.789,1.515-1.536,2.347-2.219l22.635-18.347c-24.64-40.96-52.011-62.635-54.08-64.235
				c-7.659-5.888-18.325-5.888-26.005,0c-2.048,1.6-29.056,22.976-53.547,63.381l22.656,19.669
				C362.084,88.023,362.681,88.599,363.236,89.217z"/>
			<path d="M152.923,374.508c6.528,9.792,19.755,12.459,29.589,5.909l30.827-20.544v24.128c0,35.307-28.715,64-64,64
				c-35.285,0-64-28.693-64-64v-72.149l11.797,5.909c3.051,1.536,6.315,2.24,9.515,2.24c7.829,0,15.36-4.309,19.115-11.776
				c5.269-10.56,0.981-23.36-9.557-28.629l-30.869-15.445v-37.632l11.797,5.909c3.051,1.536,6.315,2.24,9.515,2.24
				c7.829,0,15.36-4.309,19.115-11.776c5.269-10.56,0.981-23.36-9.557-28.629l-30.869-15.445v-37.632l11.797,5.909
				c3.051,1.536,6.315,2.24,9.515,2.24c7.829,0,15.36-4.309,19.115-11.776c5.269-10.56,0.981-23.36-9.557-28.629L85.339,93.484
				V21.334c0-11.776-9.536-21.333-21.333-21.333c-11.797,0-21.333,9.557-21.333,21.333v50.816l-11.797-5.888
				C20.358,60.993,7.558,65.26,2.267,75.799c-5.291,10.539-1.003,23.36,9.536,28.629l30.869,15.424v37.632l-11.797-5.888
				c-10.517-5.291-23.317-1.024-28.608,9.536c-5.291,10.539-1.003,23.36,9.536,28.629l30.869,15.424v37.632l-11.797-5.888
				c-10.517-5.269-23.317-1.003-28.608,9.536c-5.291,10.539-1.003,23.36,9.536,28.629l30.869,15.424v93.483
				c0,58.816,47.851,106.667,106.667,106.667s106.667-47.851,106.667-106.667V280.151l-97.173,64.768
				C149.019,351.447,146.374,364.716,152.923,374.508z"/>
			<path d="M476.542,343.338c19.179-30.059,35.456-72.363,35.456-130.005c0-41.259-8.384-76.416-20.096-105.557l-14.08,11.435
				c-17.941,18.901-44.907,30.123-72.491,30.123c-27.712,0-54.805-11.328-72.725-30.4l-13.589-11.819
				c-11.84,29.269-20.352,64.661-20.352,106.219c0,57.643,16.299,99.947,35.477,130.005l-33.344,103.616
				c-2.368,8.064-2.773,15.893-1.131,23.36c5.461,24.171,26.987,41.685,51.179,41.685c12.992,0,31.701-1.515,44.096-14.805
				c2.773-2.965,6.827-6.528,10.389-6.528c3.563,0,7.637,3.563,10.411,6.549c12.395,13.269,31.104,14.784,44.096,14.784
				c24.192,0,45.717-17.515,51.179-41.792c1.643-7.36,1.237-15.189-1.28-23.723L476.542,343.338z"/>
		</g>
	</g>
</g>
<g>
</g>
<g>
</g>
<g>
</g>
<g>
</g>
<g>
</g>
<g>
</g>
<g>
</g>
<g>
</g>
<g>
</g>
<g>
</g>
<g>
</g>
<g>
</g>
<g>
</g>
<g>
</g>
<g>
</g>
</svg>
